<svg width="1024" height="1024" viewBox="0 0 1024 1024" fill="none" xmlns="http://www.w3.org/2000/svg">
<g clip-path="url(#clip0_1_2)">
<rect width="1024" height="1024" fill="white"/>
<g filter="url(#filter0_d_1_2)">
<g clip-path="url(#clip1_1_2)">
<g clip-path="url(#clip2_1_2)">
<path d="M1873.56 904H-717V120H1873.56V904ZM-697.96 796.48C-702.908 796.48 -706.92 800.492 -706.92 805.44V850.24C-706.92 855.189 -702.908 859.2 -697.96 859.2H-671.08C-666.132 859.2 -662.12 855.189 -662.12 850.24V805.44C-662.12 800.492 -666.132 796.48 -671.08 796.48H-697.96ZM-589.32 796.48C-594.269 796.481 -598.28 800.492 -598.28 805.44V850.24C-598.28 855.188 -594.269 859.2 -589.32 859.2H-562.44C-557.492 859.2 -553.481 855.189 -553.48 850.24V805.44C-553.48 800.492 -557.492 796.48 -562.44 796.48H-589.32ZM-480.68 796.48C-485.628 796.48 -489.64 800.492 -489.64 805.44V850.24C-489.64 855.189 -485.628 859.2 -480.68 859.2H-453.8C-448.852 859.2 -444.84 855.189 -444.84 850.24V805.44C-444.84 800.492 -448.851 796.481 -453.8 796.48H-480.68ZM-372.04 796.48C-376.988 796.48 -381 800.492 -381 805.44V850.24C-381 855.189 -376.988 859.2 -372.04 859.2H-345.16C-340.212 859.2 -336.2 855.189 -336.2 850.24V805.44C-336.2 800.492 -340.212 796.48 -345.16 796.48H-372.04ZM-262.28 796.48C-267.229 796.481 -271.24 800.492 -271.24 805.44V850.24C-271.24 855.188 -267.229 859.2 -262.28 859.2H-235.4C-230.452 859.2 -226.441 855.189 -226.44 850.24V805.44C-226.44 800.492 -230.452 796.48 -235.4 796.48H-262.28ZM-153.64 796.48C-158.588 796.48 -162.6 800.492 -162.6 805.44V850.24C-162.599 855.189 -158.588 859.2 -153.64 859.2H-126.76C-121.811 859.2 -117.8 855.189 -117.8 850.24V805.44C-117.8 800.492 -121.811 796.481 -126.76 796.48H-153.64ZM-45 796.48C-49.9485 796.48 -53.96 800.492 -53.96 805.44V850.24C-53.9598 855.189 -49.9484 859.2 -45 859.2H-18.1201C-13.1718 859.2 -9.16028 855.189 -9.16016 850.24V805.44C-9.16016 800.492 -13.1716 796.48 -18.1201 796.48H-45ZM63.6396 796.48C58.6913 796.481 54.6797 800.492 54.6797 805.44V850.24C54.6798 855.188 58.6914 859.2 63.6396 859.2H90.5195C95.4679 859.2 99.4803 855.189 99.4805 850.24V805.44C99.4805 800.492 95.468 796.48 90.5195 796.48H63.6396ZM166.68 796.48C161.731 796.481 157.72 800.492 157.72 805.44V850.24C157.72 855.188 161.731 859.2 166.68 859.2H193.56C198.508 859.2 202.519 855.189 202.52 850.24V805.44C202.52 800.492 198.508 796.48 193.56 796.48H166.68ZM275.32 796.48C270.372 796.48 266.36 800.492 266.36 805.44V850.24C266.36 855.189 270.372 859.2 275.32 859.2H302.2C307.149 859.2 311.16 855.189 311.16 850.24V805.44C311.16 800.492 307.149 796.481 302.2 796.48H275.32ZM383.96 796.48C379.011 796.48 375 800.492 375 805.44V850.24C375 855.189 379.012 859.2 383.96 859.2H410.84C415.788 859.2 419.8 855.189 419.8 850.24V805.44C419.8 800.492 415.788 796.48 410.84 796.48H383.96ZM492.6 796.48C487.651 796.481 483.64 800.492 483.64 805.44V850.24C483.64 855.188 487.651 859.2 492.6 859.2H519.48C524.429 859.2 528.44 855.188 528.44 850.24V805.44C528.44 800.492 524.429 796.481 519.48 796.48H492.6ZM602.36 796.48C597.412 796.48 593.4 800.492 593.4 805.44V850.24C593.401 855.189 597.412 859.2 602.36 859.2H629.24C634.188 859.2 638.2 855.189 638.2 850.24V805.44C638.2 800.492 634.189 796.481 629.24 796.48H602.36ZM711 796.48C706.052 796.48 702.04 800.492 702.04 805.44V850.24C702.04 855.189 706.052 859.2 711 859.2H737.88C742.828 859.2 746.84 855.189 746.84 850.24V805.44C746.84 800.492 742.828 796.48 737.88 796.48H711ZM819.64 796.48C814.691 796.481 810.68 800.492 810.68 805.44V850.24C810.68 855.188 814.691 859.2 819.64 859.2H846.52C851.468 859.2 855.48 855.189 855.48 850.24V805.44C855.48 800.492 851.468 796.48 846.52 796.48H819.64ZM928.28 796.48C923.332 796.48 919.32 800.492 919.32 805.44V850.24C919.32 855.189 923.332 859.2 928.28 859.2H955.16C960.109 859.2 964.12 855.189 964.12 850.24V805.44C964.12 800.492 960.109 796.481 955.16 796.48H928.28ZM1031.32 796.48C1026.37 796.48 1022.36 800.492 1022.36 805.44V850.24C1022.36 855.189 1026.37 859.2 1031.32 859.2H1058.2C1063.15 859.2 1067.16 855.189 1067.16 850.24V805.44C1067.16 800.492 1063.15 796.481 1058.2 796.48H1031.32ZM1139.96 796.48C1135.01 796.48 1131 800.492 1131 805.44V850.24C1131 855.189 1135.01 859.2 1139.96 859.2H1166.84C1171.79 859.2 1175.8 855.189 1175.8 850.24V805.44C1175.8 800.492 1171.79 796.48 1166.84 796.48H1139.96ZM1248.6 796.48C1243.65 796.481 1239.64 800.492 1239.64 805.44V850.24C1239.64 855.188 1243.65 859.2 1248.6 859.2H1275.48C1280.43 859.2 1284.44 855.188 1284.44 850.24V805.44C1284.44 800.492 1280.43 796.481 1275.48 796.48H1248.6ZM1357.24 796.48C1352.29 796.48 1348.28 800.492 1348.28 805.44V850.24C1348.28 855.189 1352.29 859.2 1357.24 859.2H1384.12C1389.07 859.2 1393.08 855.189 1393.08 850.24V805.44C1393.08 800.492 1389.07 796.481 1384.12 796.48H1357.24ZM1467 796.48C1462.05 796.48 1458.04 800.492 1458.04 805.44V850.24C1458.04 855.189 1462.05 859.2 1467 859.2H1493.88C1498.83 859.2 1502.84 855.189 1502.84 850.24V805.44C1502.84 800.492 1498.83 796.48 1493.88 796.48H1467ZM1575.64 796.48C1570.69 796.481 1566.68 800.492 1566.68 805.44V850.24C1566.68 855.188 1570.69 859.2 1575.64 859.2H1602.52C1607.47 859.2 1611.48 855.189 1611.48 850.24V805.44C1611.48 800.492 1607.47 796.48 1602.52 796.48H1575.64ZM1684.28 796.48C1679.33 796.48 1675.32 800.492 1675.32 805.44V850.24C1675.32 855.189 1679.33 859.2 1684.28 859.2H1711.16C1716.11 859.2 1720.12 855.189 1720.12 850.24V805.44C1720.12 800.492 1716.11 796.481 1711.16 796.48H1684.28ZM1792.92 796.48C1787.97 796.481 1783.96 800.492 1783.96 805.44V850.24C1783.96 855.189 1787.97 859.2 1792.92 859.2H1819.8C1824.75 859.2 1828.76 855.189 1828.76 850.24V805.44C1828.76 800.492 1824.75 796.48 1819.8 796.48H1792.92ZM-697.96 164.8C-702.908 164.8 -706.92 168.811 -706.92 173.76V218.56C-706.92 223.508 -702.908 227.52 -697.96 227.52H-671.08C-666.132 227.52 -662.12 223.508 -662.12 218.56V173.76C-662.12 168.811 -666.132 164.8 -671.08 164.8H-697.96ZM-589.32 164.8C-594.269 164.8 -598.28 168.812 -598.28 173.76V218.56C-598.28 223.508 -594.269 227.519 -589.32 227.52H-562.44C-557.492 227.52 -553.48 223.508 -553.48 218.56V173.76C-553.481 168.811 -557.492 164.8 -562.44 164.8H-589.32ZM-480.68 164.8C-485.628 164.8 -489.64 168.811 -489.64 173.76V218.56C-489.64 223.508 -485.628 227.52 -480.68 227.52H-453.8C-448.851 227.519 -444.84 223.508 -444.84 218.56V173.76C-444.84 168.811 -448.852 164.8 -453.8 164.8H-480.68ZM-372.04 164.8C-376.988 164.8 -381 168.811 -381 173.76V218.56C-381 223.508 -376.988 227.52 -372.04 227.52H-345.16C-340.212 227.52 -336.2 223.508 -336.2 218.56V173.76C-336.2 168.811 -340.212 164.8 -345.16 164.8H-372.04ZM-262.28 164.8C-267.229 164.8 -271.24 168.811 -271.24 173.76V218.56C-271.24 223.508 -267.229 227.519 -262.28 227.52H-235.4C-230.452 227.52 -226.44 223.508 -226.44 218.56V173.76C-226.441 168.811 -230.452 164.8 -235.4 164.8H-262.28ZM-153.64 164.8C-158.588 164.8 -162.599 168.811 -162.6 173.76V218.56C-162.6 223.508 -158.588 227.52 -153.64 227.52H-126.76C-121.811 227.519 -117.8 223.508 -117.8 218.56V173.76C-117.8 168.811 -121.811 164.8 -126.76 164.8H-153.64ZM-45 164.8C-49.9484 164.8 -53.9598 168.811 -53.96 173.76V218.56C-53.96 223.508 -49.9485 227.52 -45 227.52H-18.1201C-13.1716 227.52 -9.16016 223.508 -9.16016 218.56V173.76C-9.16028 168.811 -13.1718 164.8 -18.1201 164.8H-45ZM63.6396 164.8C58.6914 164.8 54.6798 168.812 54.6797 173.76V218.56C54.6797 223.508 58.6913 227.519 63.6396 227.52H90.5195C95.468 227.52 99.4805 223.508 99.4805 218.56V173.76C99.4803 168.811 95.4679 164.8 90.5195 164.8H63.6396ZM166.68 164.8C161.731 164.8 157.72 168.812 157.72 173.76V218.56C157.72 223.508 161.731 227.519 166.68 227.52H193.56C198.508 227.52 202.52 223.508 202.52 218.56V173.76C202.519 168.811 198.508 164.8 193.56 164.8H166.68ZM275.32 164.8C270.372 164.8 266.36 168.811 266.36 173.76V218.56C266.36 223.508 270.372 227.52 275.32 227.52H302.2C307.149 227.519 311.16 223.508 311.16 218.56V173.76C311.16 168.811 307.149 164.8 302.2 164.8H275.32ZM383.96 164.8C379.012 164.8 375 168.811 375 173.76V218.56C375 223.508 379.011 227.52 383.96 227.52H410.84C415.788 227.52 419.8 223.508 419.8 218.56V173.76C419.8 168.811 415.788 164.8 410.84 164.8H383.96ZM492.6 164.8C487.651 164.8 483.64 168.812 483.64 173.76V218.56C483.64 223.508 487.651 227.519 492.6 227.52H519.48C524.429 227.519 528.44 223.508 528.44 218.56V173.76C528.44 168.812 524.429 164.8 519.48 164.8H492.6ZM602.36 164.8C597.412 164.8 593.401 168.811 593.4 173.76V218.56C593.4 223.508 597.412 227.52 602.36 227.52H629.24C634.189 227.519 638.2 223.508 638.2 218.56V173.76C638.2 168.811 634.188 164.8 629.24 164.8H602.36ZM711 164.8C706.052 164.8 702.04 168.811 702.04 173.76V218.56C702.04 223.508 706.052 227.52 711 227.52H737.88C742.828 227.52 746.84 223.508 746.84 218.56V173.76C746.84 168.811 742.828 164.8 737.88 164.8H711ZM819.64 164.8C814.691 164.8 810.68 168.812 810.68 173.76V218.56C810.68 223.508 814.691 227.519 819.64 227.52H846.52C851.468 227.52 855.48 223.508 855.48 218.56V173.76C855.48 168.811 851.468 164.8 846.52 164.8H819.64ZM928.28 164.8C923.332 164.8 919.32 168.811 919.32 173.76V218.56C919.32 223.508 923.332 227.52 928.28 227.52H955.16C960.109 227.519 964.12 223.508 964.12 218.56V173.76C964.12 168.811 960.109 164.8 955.16 164.8H928.28ZM1031.32 164.8C1026.37 164.8 1022.36 168.811 1022.36 173.76V218.56C1022.36 223.508 1026.37 227.52 1031.32 227.52H1058.2C1063.15 227.519 1067.16 223.508 1067.16 218.56V173.76C1067.16 168.811 1063.15 164.8 1058.2 164.8H1031.32ZM1139.96 164.8C1135.01 164.8 1131 168.811 1131 173.76V218.56C1131 223.508 1135.01 227.52 1139.96 227.52H1166.84C1171.79 227.52 1175.8 223.508 1175.8 218.56V173.76C1175.8 168.811 1171.79 164.8 1166.84 164.8H1139.96ZM1248.6 164.8C1243.65 164.8 1239.64 168.812 1239.64 173.76V218.56C1239.64 223.508 1243.65 227.519 1248.6 227.52H1275.48C1280.43 227.519 1284.44 223.508 1284.44 218.56V173.76C1284.44 168.812 1280.43 164.8 1275.48 164.8H1248.6ZM1357.24 164.8C1352.29 164.8 1348.28 168.811 1348.28 173.76V218.56C1348.28 223.508 1352.29 227.52 1357.24 227.52H1384.12C1389.07 227.519 1393.08 223.508 1393.08 218.56V173.76C1393.08 168.811 1389.07 164.8 1384.12 164.8H1357.24ZM1467 164.8C1462.05 164.8 1458.04 168.811 1458.04 173.76V218.56C1458.04 223.508 1462.05 227.52 1467 227.52H1493.88C1498.83 227.52 1502.84 223.508 1502.84 218.56V173.76C1502.84 168.811 1498.83 164.8 1493.88 164.8H1467ZM1575.64 164.8C1570.69 164.8 1566.68 168.812 1566.68 173.76V218.56C1566.68 223.508 1570.69 227.519 1575.64 227.52H1602.52C1607.47 227.52 1611.48 223.508 1611.48 218.56V173.76C1611.48 168.811 1607.47 164.8 1602.52 164.8H1575.64ZM1684.28 164.8C1679.33 164.8 1675.32 168.811 1675.32 173.76V218.56C1675.32 223.508 1679.33 227.52 1684.28 227.52H1711.16C1716.11 227.519 1720.12 223.508 1720.12 218.56V173.76C1720.12 168.811 1716.11 164.8 1711.16 164.8H1684.28ZM1792.92 164.8C1787.97 164.8 1783.96 168.811 1783.96 173.76V218.56C1783.96 223.508 1787.97 227.519 1792.92 227.52H1819.8C1824.75 227.52 1828.76 223.508 1828.76 218.56V173.76C1828.76 168.811 1824.75 164.8 1819.8 164.8H1792.92Z" fill="black"/>
</g>
<g filter="url(#filter1_i_1_2)">
<g clip-path="url(#clip3_1_2)">
<rect x="-602.283" y="272" width="720" height="480" fill="#1D8CE7"/>
</g>
</g>
<g filter="url(#filter2_i_1_2)">
<g clip-path="url(#clip4_1_2)">
<g clip-path="url(#clip5_1_2)">
<rect width="719" height="480" transform="translate(158.503 272)" fill="#1D8CE7"/>
<mask id="mask0_1_2" style="mask-type:alpha" maskUnits="userSpaceOnUse" x="246" y="247" width="544" height="480">
<ellipse cx="520.72" cy="550.581" rx="163.794" ry="175.757" fill="black"/>
<path d="M353.289 325.053C353.289 320.201 358.311 317.054 362.183 319.48L529.879 424.552C533.635 426.905 533.49 432.775 529.616 435.203L361.92 540.274C358.045 542.702 353.289 539.903 353.289 535.196L353.289 325.053Z" fill="black"/>
<path d="M673.823 319.48C677.695 317.054 682.717 320.201 682.717 325.053L682.717 535.196C682.717 539.903 677.96 542.702 674.086 540.274L506.39 435.203C502.515 432.775 502.37 426.905 506.127 424.552L673.823 319.48Z" fill="black"/>
<ellipse cx="517.039" cy="582.537" rx="196.921" ry="143.801" fill="black"/>
</mask>
<g mask="url(#mask0_1_2)">
<rect x="158.503" y="272" width="719" height="480" fill="#2DB57D"/>
<g filter="url(#filter3_d_1_2)">
<ellipse cx="613.339" cy="499.536" rx="18.6908" ry="51.4643" fill="white"/>
<ellipse cx="533.903" cy="420" rx="18.7143" ry="51.3998" transform="rotate(-90 533.903 420)" fill="white"/>
<ellipse cx="18.6967" cy="51.4482" rx="18.6967" ry="51.4482" transform="matrix(-0.865754 -0.50047 0.49953 -0.866297 570.949 537.21)" fill="white"/>
<ellipse cx="18.7084" cy="51.4159" rx="18.7084" ry="51.4159" transform="matrix(-0.49953 -0.866297 0.865754 -0.50047 519.884 494.521)" fill="white"/>
<ellipse cx="18.6967" cy="51.4482" rx="18.6967" ry="51.4482" transform="matrix(0.865754 -0.50047 0.49953 0.866297 536.239 317.071)" fill="white"/>
<ellipse cx="18.7084" cy="51.4159" rx="18.7084" ry="51.4159" transform="matrix(0.49953 -0.866297 0.865754 0.50047 493.894 373.964)" fill="white"/>
<ellipse cx="613.339" cy="340.464" rx="18.6908" ry="51.4643" fill="white"/>
<ellipse cx="18.7084" cy="51.4159" rx="18.7084" ry="51.4159" transform="matrix(0.49953 0.866297 -0.865754 0.50047 716.138 342.804)" fill="white"/>
<ellipse cx="18.6967" cy="51.4482" rx="18.6967" ry="51.4482" transform="matrix(0.865754 0.50047 -0.49953 0.866297 659.317 300.405)" fill="white"/>
<ellipse cx="613.339" cy="340.464" rx="18.6908" ry="51.4643" fill="white"/>
<ellipse cx="18.7084" cy="51.4159" rx="18.7084" ry="51.4159" transform="matrix(0.49953 0.866297 -0.865754 0.50047 716.138 342.804)" fill="white"/>
<ellipse cx="18.6967" cy="51.4482" rx="18.6967" ry="51.4482" transform="matrix(0.865754 0.50047 -0.49953 0.866297 659.317 300.405)" fill="white"/>
<ellipse cx="690.103" cy="420" rx="18.7143" ry="51.3998" transform="rotate(90 690.103 420)" fill="white"/>
<ellipse cx="18.6967" cy="51.4482" rx="18.6967" ry="51.4482" transform="matrix(-0.865754 0.50047 -0.49953 -0.866297 687.767 522.929)" fill="white"/>
<ellipse cx="18.7084" cy="51.4159" rx="18.7084" ry="51.4159" transform="matrix(-0.49953 0.866297 -0.865754 -0.50047 730.112 466.036)" fill="white"/>
<ellipse cx="613.339" cy="420" rx="37.3817" ry="37.4286" fill="#FFBB00"/>
</g>
<g filter="url(#filter4_d_1_2)">
<ellipse cx="586.195" cy="775.536" rx="30.6703" ry="84.4643" fill="white"/>
<ellipse cx="455.846" cy="645" rx="30.7143" ry="84.3433" transform="rotate(-90 455.846 645)" fill="white"/>
<ellipse cx="30.6813" cy="84.4341" rx="30.6813" ry="84.4341" transform="matrix(-0.865715 -0.500538 0.499463 -0.866335 516.636 837.368)" fill="white"/>
<ellipse cx="30.7033" cy="84.3736" rx="30.7033" ry="84.3736" transform="matrix(-0.499463 -0.866335 0.865715 -0.500538 432.843 767.306)" fill="white"/>
<ellipse cx="30.6813" cy="84.4341" rx="30.6813" ry="84.4341" transform="matrix(0.865715 -0.500538 0.499463 0.866335 459.68 476.071)" fill="white"/>
<ellipse cx="30.7033" cy="84.3736" rx="30.7033" ry="84.3736" transform="matrix(0.499463 -0.866335 0.865715 0.500538 390.195 569.445)" fill="white"/>
<ellipse cx="586.195" cy="514.464" rx="30.6703" ry="84.4643" fill="white"/>
<ellipse cx="30.7033" cy="84.3736" rx="30.7033" ry="84.3736" transform="matrix(0.499463 0.866335 -0.865715 0.500538 754.881 518.304)" fill="white"/>
<ellipse cx="30.6813" cy="84.4341" rx="30.6813" ry="84.4341" transform="matrix(0.865715 0.500538 -0.499463 0.866335 661.642 448.719)" fill="white"/>
<ellipse cx="586.195" cy="514.464" rx="30.6703" ry="84.4643" fill="white"/>
<ellipse cx="30.7033" cy="84.3736" rx="30.7033" ry="84.3736" transform="matrix(0.499463 0.866335 -0.865715 0.500538 754.881 518.304)" fill="white"/>
<ellipse cx="30.6813" cy="84.4341" rx="30.6813" ry="84.4341" transform="matrix(0.865715 0.500538 -0.499463 0.866335 661.642 448.719)" fill="white"/>
<ellipse cx="712.159" cy="645" rx="30.7143" ry="84.3433" transform="rotate(90 712.159 645)" fill="white"/>
<ellipse cx="30.6813" cy="84.4341" rx="30.6813" ry="84.4341" transform="matrix(-0.865715 0.500538 -0.499463 -0.866335 708.326 813.929)" fill="white"/>
<ellipse cx="30.7033" cy="84.3736" rx="30.7033" ry="84.3736" transform="matrix(-0.499463 0.866335 -0.865715 -0.500538 777.811 720.555)" fill="white"/>
<ellipse cx="586.195" cy="645" rx="61.3406" ry="61.4286" fill="#FFBB00"/>
</g>
<g filter="url(#filter5_d_1_2)">
<ellipse cx="402.699" cy="487.429" rx="16.7424" ry="45.5714" fill="white"/>
<ellipse cx="331.544" cy="417" rx="16.5714" ry="46.0415" transform="rotate(-90 331.544 417)" fill="white"/>
<ellipse cx="16.6998" cy="45.6894" rx="16.6998" ry="45.6894" transform="matrix(-0.868233 -0.496157 0.503853 -0.863789 364.729 520.789)" fill="white"/>
<ellipse cx="16.6143" cy="45.9245" rx="16.6143" ry="45.9245" transform="matrix(-0.503853 -0.863789 0.868233 -0.496157 318.987 482.988)" fill="white"/>
<ellipse cx="16.6998" cy="45.6894" rx="16.6998" ry="45.6894" transform="matrix(0.868233 -0.496156 0.503853 0.863789 333.637 325.857)" fill="white"/>
<ellipse cx="16.6143" cy="45.9245" rx="16.6143" ry="45.9245" transform="matrix(0.503853 -0.863789 0.868233 0.496156 295.706 376.235)" fill="white"/>
<ellipse cx="402.699" cy="346.571" rx="16.7424" ry="45.5714" fill="white"/>
<ellipse cx="16.6143" cy="45.9245" rx="16.6143" ry="45.9245" transform="matrix(0.503853 0.863789 -0.868233 0.496156 494.782 348.643)" fill="white"/>
<ellipse cx="16.6998" cy="45.6894" rx="16.6998" ry="45.6894" transform="matrix(0.868233 0.496156 -0.503853 0.863789 443.884 311.1)" fill="white"/>
<ellipse cx="402.699" cy="346.571" rx="16.7424" ry="45.5714" fill="white"/>
<ellipse cx="16.6143" cy="45.9245" rx="16.6143" ry="45.9245" transform="matrix(0.503853 0.863789 -0.868233 0.496156 494.782 348.643)" fill="white"/>
<ellipse cx="16.6998" cy="45.6894" rx="16.6998" ry="45.6894" transform="matrix(0.868233 0.496156 -0.503853 0.863789 443.884 311.1)" fill="white"/>
<ellipse cx="471.461" cy="417" rx="16.5714" ry="46.0415" transform="rotate(90 471.461 417)" fill="white"/>
<ellipse cx="16.6998" cy="45.6894" rx="16.6998" ry="45.6894" transform="matrix(-0.868233 0.496156 -0.503853 -0.863789 469.368 508.143)" fill="white"/>
<ellipse cx="16.6143" cy="45.9245" rx="16.6143" ry="45.9245" transform="matrix(-0.503853 0.863789 -0.868233 -0.496156 507.299 457.765)" fill="white"/>
<ellipse cx="402.699" cy="417" rx="33.4847" ry="33.1429" fill="#FFBB00"/>
</g>
<g filter="url(#filter6_d_1_2)">
<ellipse cx="431.625" cy="664.767" rx="22.1603" ry="61.0541" fill="white"/>
<ellipse cx="337.443" cy="570.41" rx="22.2015" ry="60.9407" transform="rotate(-90 337.443 570.41)" fill="white"/>
<ellipse cx="22.1706" cy="61.0257" rx="22.1706" ry="61.0257" transform="matrix(-0.865623 -0.500697 0.499303 -0.866427 381.366 709.461)" fill="white"/>
<ellipse cx="22.1912" cy="60.9691" rx="22.1912" ry="60.9691" transform="matrix(-0.499303 -0.866427 0.865623 -0.500697 320.823 658.818)" fill="white"/>
<ellipse cx="22.1706" cy="61.0257" rx="22.1706" ry="61.0257" transform="matrix(0.865623 -0.500697 0.499303 0.866427 340.213 448.302)" fill="white"/>
<ellipse cx="22.1912" cy="60.9691" rx="22.1912" ry="60.9691" transform="matrix(0.499303 -0.866427 0.865623 0.500697 290.008 515.796)" fill="white"/>
<ellipse cx="431.625" cy="476.054" rx="22.1603" ry="61.0541" fill="white"/>
<ellipse cx="22.1912" cy="60.9691" rx="22.1912" ry="60.9691" transform="matrix(0.499303 0.866427 -0.865623 0.500697 553.506 478.829)" fill="white"/>
<ellipse cx="22.1706" cy="61.0257" rx="22.1706" ry="61.0257" transform="matrix(0.865623 0.500697 -0.499303 0.866427 486.137 428.531)" fill="white"/>
<ellipse cx="431.625" cy="476.054" rx="22.1603" ry="61.0541" fill="white"/>
<ellipse cx="22.1912" cy="60.9691" rx="22.1912" ry="60.9691" transform="matrix(0.499303 0.866427 -0.865623 0.500697 553.506 478.829)" fill="white"/>
<ellipse cx="22.1706" cy="61.0257" rx="22.1706" ry="61.0257" transform="matrix(0.865623 0.500697 -0.499303 0.866427 486.137 428.531)" fill="white"/>
<ellipse cx="522.638" cy="570.41" rx="22.2015" ry="60.9407" transform="rotate(90 522.638 570.41)" fill="white"/>
<ellipse cx="22.1706" cy="61.0257" rx="22.1706" ry="61.0257" transform="matrix(-0.865623 0.500697 -0.499303 -0.866427 519.868 692.518)" fill="white"/>
<ellipse cx="22.1912" cy="60.9691" rx="22.1912" ry="60.9691" transform="matrix(-0.499303 0.866427 -0.865623 -0.500697 570.073 625.024)" fill="white"/>
<ellipse cx="431.625" cy="570.41" rx="44.3205" ry="44.403" fill="#FFBB00"/>
</g>
</g>
</g>
</g>
</g>
<g filter="url(#filter7_i_1_2)">
<g clip-path="url(#clip6_1_2)">
<rect x="918.283" y="272" width="720" height="480" fill="#1D8CE7"/>
</g>
</g>
</g>
</g>
</g>
<defs>
<filter id="filter0_d_1_2" x="-788.1" y="39.9" width="2600.2" height="944.2" filterUnits="userSpaceOnUse" color-interpolation-filters="sRGB">
<feFlood flood-opacity="0" result="BackgroundImageFix"/>
<feColorMatrix in="SourceAlpha" type="matrix" values="0 0 0 0 0 0 0 0 0 0 0 0 0 0 0 0 0 0 127 0" result="hardAlpha"/>
<feMorphology radius="39" operator="dilate" in="SourceAlpha" result="effect1_dropShadow_1_2"/>
<feOffset/>
<feGaussianBlur stdDeviation="20.55"/>
<feComposite in2="hardAlpha" operator="out"/>
<feColorMatrix type="matrix" values="0 0 0 0 0 0 0 0 0 0 0 0 0 0 0 0 0 0 0.25 0"/>
<feBlend mode="normal" in2="BackgroundImageFix" result="effect1_dropShadow_1_2"/>
<feBlend mode="normal" in="SourceGraphic" in2="effect1_dropShadow_1_2" result="shape"/>
</filter>
<filter id="filter1_i_1_2" x="-614.283" y="162" width="723.857" height="704" filterUnits="userSpaceOnUse" color-interpolation-filters="sRGB">
<feFlood flood-opacity="0" result="BackgroundImageFix"/>
<feBlend mode="normal" in="SourceGraphic" in2="BackgroundImageFix" result="shape"/>
<feColorMatrix in="SourceAlpha" type="matrix" values="0 0 0 0 0 0 0 0 0 0 0 0 0 0 0 0 0 0 127 0" result="hardAlpha"/>
<feMorphology radius="61" operator="erode" in="SourceAlpha" result="effect1_innerShadow_1_2"/>
<feOffset dy="4"/>
<feGaussianBlur stdDeviation="93.65"/>
<feComposite in2="hardAlpha" operator="arithmetic" k2="-1" k3="1"/>
<feColorMatrix type="matrix" values="0 0 0 0 0 0 0 0 0 0 0 0 0 0 0 0 0 0 0.25 0"/>
<feBlend mode="normal" in2="shape" result="effect1_innerShadow_1_2"/>
</filter>
<filter id="filter2_i_1_2" x="150.574" y="162" width="722.852" height="704" filterUnits="userSpaceOnUse" color-interpolation-filters="sRGB">
<feFlood flood-opacity="0" result="BackgroundImageFix"/>
<feBlend mode="normal" in="SourceGraphic" in2="BackgroundImageFix" result="shape"/>
<feColorMatrix in="SourceAlpha" type="matrix" values="0 0 0 0 0 0 0 0 0 0 0 0 0 0 0 0 0 0 127 0" result="hardAlpha"/>
<feMorphology radius="61" operator="erode" in="SourceAlpha" result="effect1_innerShadow_1_2"/>
<feOffset dy="4"/>
<feGaussianBlur stdDeviation="93.65"/>
<feComposite in2="hardAlpha" operator="arithmetic" k2="-1" k3="1"/>
<feColorMatrix type="matrix" values="0 0 0 0 0 0 0 0 0 0 0 0 0 0 0 0 0 0 0.25 0"/>
<feBlend mode="normal" in2="shape" result="effect1_innerShadow_1_2"/>
</filter>
<filter id="filter3_d_1_2" x="466.203" y="276.7" width="291.6" height="294.6" filterUnits="userSpaceOnUse" color-interpolation-filters="sRGB">
<feFlood flood-opacity="0" result="BackgroundImageFix"/>
<feColorMatrix in="SourceAlpha" type="matrix" values="0 0 0 0 0 0 0 0 0 0 0 0 0 0 0 0 0 0 127 0" result="hardAlpha"/>
<feOffset dy="4"/>
<feGaussianBlur stdDeviation="8.15"/>
<feComposite in2="hardAlpha" operator="out"/>
<feColorMatrix type="matrix" values="0 0 0 0 0 0 0 0 0 0 0 0 0 0 0 0 0 0 0.5 0"/>
<feBlend mode="normal" in2="BackgroundImageFix" result="effect1_dropShadow_1_2"/>
<feBlend mode="normal" in="SourceGraphic" in2="effect1_dropShadow_1_2" result="shape"/>
</filter>
<filter id="filter4_d_1_2" x="355.203" y="417.7" width="457.6" height="462.6" filterUnits="userSpaceOnUse" color-interpolation-filters="sRGB">
<feFlood flood-opacity="0" result="BackgroundImageFix"/>
<feColorMatrix in="SourceAlpha" type="matrix" values="0 0 0 0 0 0 0 0 0 0 0 0 0 0 0 0 0 0 127 0" result="hardAlpha"/>
<feOffset dy="4"/>
<feGaussianBlur stdDeviation="8.15"/>
<feComposite in2="hardAlpha" operator="out"/>
<feColorMatrix type="matrix" values="0 0 0 0 0 0 0 0 0 0 0 0 0 0 0 0 0 0 0.5 0"/>
<feBlend mode="normal" in2="BackgroundImageFix" result="effect1_dropShadow_1_2"/>
<feBlend mode="normal" in="SourceGraphic" in2="effect1_dropShadow_1_2" result="shape"/>
</filter>
<filter id="filter5_d_1_2" x="269.203" y="288.7" width="264.6" height="264.6" filterUnits="userSpaceOnUse" color-interpolation-filters="sRGB">
<feFlood flood-opacity="0" result="BackgroundImageFix"/>
<feColorMatrix in="SourceAlpha" type="matrix" values="0 0 0 0 0 0 0 0 0 0 0 0 0 0 0 0 0 0 127 0" result="hardAlpha"/>
<feOffset dy="4"/>
<feGaussianBlur stdDeviation="8.15"/>
<feComposite in2="hardAlpha" operator="out"/>
<feColorMatrix type="matrix" values="0 0 0 0 0 0 0 0 0 0 0 0 0 0 0 0 0 0 0.5 0"/>
<feBlend mode="normal" in2="BackgroundImageFix" result="effect1_dropShadow_1_2"/>
<feBlend mode="normal" in="SourceGraphic" in2="effect1_dropShadow_1_2" result="shape"/>
</filter>
<filter id="filter6_d_1_2" x="260.203" y="402.7" width="339.676" height="343.421" filterUnits="userSpaceOnUse" color-interpolation-filters="sRGB">
<feFlood flood-opacity="0" result="BackgroundImageFix"/>
<feColorMatrix in="SourceAlpha" type="matrix" values="0 0 0 0 0 0 0 0 0 0 0 0 0 0 0 0 0 0 127 0" result="hardAlpha"/>
<feOffset dy="4"/>
<feGaussianBlur stdDeviation="8.15"/>
<feComposite in2="hardAlpha" operator="out"/>
<feColorMatrix type="matrix" values="0 0 0 0 0 0 0 0 0 0 0 0 0 0 0 0 0 0 0.5 0"/>
<feBlend mode="normal" in2="BackgroundImageFix" result="effect1_dropShadow_1_2"/>
<feBlend mode="normal" in="SourceGraphic" in2="effect1_dropShadow_1_2" result="shape"/>
</filter>
<filter id="filter7_i_1_2" x="914.426" y="162" width="723.857" height="704" filterUnits="userSpaceOnUse" color-interpolation-filters="sRGB">
<feFlood flood-opacity="0" result="BackgroundImageFix"/>
<feBlend mode="normal" in="SourceGraphic" in2="BackgroundImageFix" result="shape"/>
<feColorMatrix in="SourceAlpha" type="matrix" values="0 0 0 0 0 0 0 0 0 0 0 0 0 0 0 0 0 0 127 0" result="hardAlpha"/>
<feMorphology radius="61" operator="erode" in="SourceAlpha" result="effect1_innerShadow_1_2"/>
<feOffset dy="4"/>
<feGaussianBlur stdDeviation="93.65"/>
<feComposite in2="hardAlpha" operator="arithmetic" k2="-1" k3="1"/>
<feColorMatrix type="matrix" values="0 0 0 0 0 0 0 0 0 0 0 0 0 0 0 0 0 0 0.25 0"/>
<feBlend mode="normal" in2="shape" result="effect1_innerShadow_1_2"/>
</filter>
<clipPath id="clip0_1_2">
<rect width="1024" height="1024" fill="white"/>
</clipPath>
<clipPath id="clip1_1_2">
<rect width="2440" height="784" fill="white" transform="translate(-708 120)"/>
</clipPath>
<clipPath id="clip2_1_2">
<rect width="2502" height="784" fill="white" transform="translate(-708 120)"/>
</clipPath>
<clipPath id="clip3_1_2">
<rect width="723.857" height="700" fill="white" transform="translate(-614.283 162)"/>
</clipPath>
<clipPath id="clip4_1_2">
<rect width="722.852" height="700" fill="white" transform="translate(150.574 162)"/>
</clipPath>
<clipPath id="clip5_1_2">
<rect width="719" height="480" fill="white" transform="translate(158.503 272)"/>
</clipPath>
<clipPath id="clip6_1_2">
<rect width="723.857" height="700" fill="white" transform="translate(914.426 162)"/>
</clipPath>
</defs>
</svg>
